<svg xmlns="http://www.w3.org/2000/svg" viewdiv="0 0 16 20"><defs><style>.a{fill:#fff;}</style></defs><title>backward-10</title><path class="a" d="M8,0V4a8,8,0,1,1-8,8H2A6,6,0,1,0,8,6v4L3,5Z"/><polygon class="a" points="6.05 15 6.9 15 6.9 10.73 6.81 10.73 5.04 11.36 5.04 12.05 6.05 11.74 6.05 15"/><path class="a" d="M11.07,11.68a1.54,1.54,0,0,0-.3-.57,1.15,1.15,0,0,0-.46-.33,1.59,1.59,0,0,0-.59-.1,1.55,1.55,0,0,0-.59.1,1.12,1.12,0,0,0-.45.33,1.8,1.8,0,0,0-.29.57,2.78,2.78,0,0,0-.1.82v.74a2.81,2.81,0,0,0,.11.82,1.54,1.54,0,0,0,.3.57,1.15,1.15,0,0,0,.46.33,1.59,1.59,0,0,0,.59.1,1.55,1.55,0,0,0,.59-.1,1.12,1.12,0,0,0,.45-.33,1.8,1.8,0,0,0,.29-.57,2.78,2.78,0,0,0,.1-.82V12.5A2.81,2.81,0,0,0,11.07,11.68Zm-.75.7v1a3.09,3.09,0,0,1,0,.48.86.86,0,0,1-.11.32.44.44,0,0,1-.19.17.66.66,0,0,1-.25,0,.7.7,0,0,1-.25,0,.39.39,0,0,1-.19-.17,1.07,1.07,0,0,1-.12-.32,2.21,2.21,0,0,1,0-.48v-1a2.21,2.21,0,0,1,0-.48,1,1,0,0,1,.12-.31.44.44,0,0,1,.19-.17.66.66,0,0,1,.25,0,.7.7,0,0,1,.25,0,.39.39,0,0,1,.19.17,1,1,0,0,1,.12.31,2.21,2.21,0,0,1,0,.48Z"/></svg>