<svg xmlns="http://www.w3.org/2000/svg" viewBox="0 0 16 20"><defs><style>.a{fill:#fff;}</style></defs><title>forward-10</title><path class="a" d="M8,18a6,6,0,0,0,6-6h2A8,8,0,1,1,8,4V0l5,5L8,10V6A6,6,0,0,0,8,18Z"/><polygon class="a" points="6.9 10.73 6.9 15 6.05 15 6.05 11.74 5.04 12.05 5.04 11.36 6.81 10.73 6.9 10.73"/><path class="a" d="M11.08,11.68a1.63,1.63,0,0,0-.3-.57,1.23,1.23,0,0,0-.46-.33,1.79,1.79,0,0,0-1.18,0,1.06,1.06,0,0,0-.45.33,1.53,1.53,0,0,0-.29.57,3.22,3.22,0,0,0-.1.82v.74a2.76,2.76,0,0,0,.11.82,1.63,1.63,0,0,0,.3.57,1.15,1.15,0,0,0,.46.33,1.79,1.79,0,0,0,1.18,0,1.06,1.06,0,0,0,.45-.33,1.7,1.7,0,0,0,.29-.57,2.83,2.83,0,0,0,.1-.82V12.5A2.76,2.76,0,0,0,11.08,11.68Zm-.74,1.67h0a2.21,2.21,0,0,1,0,.48,1.08,1.08,0,0,1-.11.32.39.39,0,0,1-.19.17.7.7,0,0,1-.25,0,.66.66,0,0,1-.25,0,.44.44,0,0,1-.19-.17,1.07,1.07,0,0,1-.12-.32,2.21,2.21,0,0,1,0-.48v-1a2.21,2.21,0,0,1,0-.48.8.8,0,0,1,.12-.31.44.44,0,0,1,.19-.17.7.7,0,0,1,.25,0,.66.66,0,0,1,.25,0,.44.44,0,0,1,.19.17,1,1,0,0,1,.12.31,2.21,2.21,0,0,1,0,.48Z"/></svg>