<?xml version="1.0" encoding="utf-8"?>
<!-- Generator: Adobe Illustrator 25.4.1, SVG Export Plug-In . SVG Version: 6.00 Build 0)  -->
<svg version="1.1" id="Kobi" xmlns="http://www.w3.org/2000/svg" xmlns:xlink="http://www.w3.org/1999/xlink" x="0px" y="0px"
	 viewdiv="0 0 334 334" style="enable-background:new 0 0 334 334;" xml:space="preserve">
<style type="text/css">
	.st0{fill:#FFFFFF;stroke:#000000;stroke-miterlimit:10;}
	.st1{fill:#063534;}
	.st2{fill:#4BB6AB;}
	.st3{fill:#F39968;}
	.st4{fill:#305750;}
	.st5{fill:#008080;}
	.st6{fill:#E8E8E8;}
</style>
<rect x="-12.8" y="-4.2" class="st0" width="359.5" height="342.5"/>
<g>
	<path class="st1" d="M245.1,212c-0.1,0-0.1,0-0.2,0C245,212.1,245,212,245.1,212L245.1,212z"/>
	<path class="st2" d="M287.3,240.7c0,0.7-0.1,1.5-0.5,2.1c-1.1,1.5-4.7,1.1-9.5-1c-5.4-2.5-10.8-4.9-16-7.7c-3.4-1.8-6.9-3.9-10-6.4
		c-4.1-3.4-6.9-7.9-8.4-13c0.9,0,1.7,0,2.7,0c0.9,0,1.7,0,2.6,0c0.6,0,1.2,0,1.8,0c0.9,0,1.7,0,2.6-0.1c0.1,0,0.2,0,0.4,0
		c1.1,0,2.1,0,3.2-0.1c1.2,0,2.5-0.1,3.6-0.2c0.6,0,1.2-0.1,1.8-0.1c0.2,0,0.4,0,0.6,0c0.4,0,0.7-0.1,1.2-0.1c0.2,0,0.4,0,0.6,0
		c0.6-0.1,1.4-0.1,2-0.2c1.2-0.1,2.5-0.4,3.7-0.6c0.2,0,0.4,0,0.6-0.1c0.1,0.2,0.2,0.4,0.4,0.6c1.8,2.7,3.7,5.3,5.8,7.7
		c2.1,2.5,4.2,5,5.9,7.7c1.4,2.1,2.6,4.3,3.6,6.6C286.7,237.2,287.3,238.9,287.3,240.7z"/>
	<path class="st2" d="M230.7,275.1c-0.4,0.6-1.8,2.2-8.7,1.5c-14.9-1.5-30.8-6.3-43.9-13.3c-11.3-6-25.8-16.8-31.5-33.5
		c-3.1-9.1-5.7-17.8-7.7-26.2l0,0c-0.6-2.2-1.1-4.5-1.7-6.6c0,0,0,0,0-0.1c-0.9-3.7-1.7-7.1-2.3-10.6c0.2,0.2,0.6,0.4,0.9,0.6
		c12.2,8.4,26.4,14.9,42.1,19.4c1.6,3.1,3.6,6.4,5.9,9.8l0,0c1.1,1.6,2.2,3.3,3.4,5l0,0c4.1,5.5,9,11.5,15.2,18.1
		c1.8,2,3.9,4.1,6.1,6.3C217.6,254.8,232.9,270.4,230.7,275.1z"/>
	<path class="st3" d="M241.2,220.1h-0.5l0,0c-13.3,1.1-27.8,0.6-42.8-1.6c-3.2-0.5-6.3-1-9.2-1.5l0,0c-2.3-3.3-4.3-6.4-6-9.5
		c2.1,0.6,4.3,1.1,6.4,1.6c0.6,0.1,1.4,0.2,2,0.4l0,0c1,0.2,2,0.4,2.9,0.6c0.7,0.1,1.5,0.2,2.2,0.5c1.5,0.2,2.9,0.5,4.4,0.7
		c0.1,0,0.2,0,0.4,0c0.7,0.1,1.5,0.2,2.2,0.4c2.5,0.4,5,0.7,7.5,1c0.9,0.1,1.7,0.2,2.6,0.2c0.4,0.1,0.9,0.1,1.2,0.1
		c1,0.1,1.8,0.1,2.8,0.2c4.1,0.4,8.2,0.6,12.5,0.9c1,0,1.8,0.1,2.8,0.1h0.1c1,0,1.8,0.1,2.8,0.1s2,0,2.9,0.1c0.2,0,0.4,0,0.6,0
		C239.8,216.6,240.4,218.4,241.2,220.1z"/>
	<path class="st3" d="M132.3,192.4L132.3,192.4c-2.1-2.1-4.2-4.3-6-6.8c-2.8-3.6-5.5-8.1-7.9-13c3.3,3.4,7.2,6.8,11.8,10.2
		c0,0,0,0,0.1,0C130.9,186,131.6,189,132.3,192.4L132.3,192.4z"/>
	<path class="st4" d="M282.4,202.8c-0.1,0.1-0.1,0.4-0.2,0.5c-0.4,0.7-0.6,1.4-1.2,2c-0.6,0.5-1.4,0.7-2,1.2
		c-0.2,0.1-0.4,0.2-0.6,0.2c-1.2,0.6-2.3,1-3.2,1.2c-0.2,0.1-0.5,0.1-0.6,0.2c-0.6,0.1-1.2,0.4-1.8,0.5c-0.7,0.2-1.5,0.4-2.2,0.5
		c-0.6,0.1-1.2,0.2-1.8,0.4c-0.1,0-0.1,0-0.2,0c-0.5,0.1-0.9,0.1-1.4,0.2c-0.4,0-0.7,0.1-1.1,0.1c-0.5,0.1-1,0.1-1.6,0.2
		c-0.2,0-0.5,0.1-0.7,0.1c-0.6,0.1-1.1,0.1-1.7,0.1c-0.2,0-0.5,0-0.9,0.1c-1.4,0.1-2.8,0.2-4.3,0.2c-0.4,0-0.7,0-1,0
		c-0.6,0-1.2,0-1.8,0.1c-0.9,0-1.7,0-2.7,0c-0.9,0-1.7,0-2.7,0h-0.1c-1,0-1.8,0-2.7,0c-1.1,0-2.3,0-3.4,0c-0.6,0-1.2,0-1.8,0h-0.2
		c-0.5,0-1.1,0-1.6,0c-0.2,0-0.4,0-0.6,0c-1.1,0-2.1,0-3.2-0.1c-0.6,0-1.1,0-1.7-0.1c-1.1,0-2.1-0.1-3.1-0.1c-1.2,0-2.5-0.1-3.7-0.2
		c-0.2,0-0.4,0-0.6,0c-1.2-0.1-2.3-0.1-3.4-0.2c-2.3-0.1-4.7-0.4-6.9-0.6c-0.7-0.1-1.6-0.1-2.3-0.2c-1.1-0.1-2.1-0.2-3.1-0.4
		c-1.1-0.1-2.2-0.2-3.3-0.4c-0.7-0.1-1.5-0.2-2.2-0.4c-0.6-0.1-1.2-0.1-1.8-0.2c-1.5-0.2-2.8-0.5-4.3-0.7c-1.4-0.2-2.8-0.5-4.2-0.7
		c-0.5-0.1-1-0.2-1.6-0.4c-0.7-0.1-1.5-0.2-2.1-0.5c-0.7-0.1-1.4-0.2-2-0.5c-1.4-0.4-2.8-0.6-4.2-1c-0.5-0.1-1-0.2-1.5-0.4
		c-0.7-0.2-1.6-0.4-2.3-0.6c-0.1,0-0.2-0.1-0.5-0.1c-0.6-0.1-1.4-0.4-2-0.6c-15-4.4-28.4-10.7-40.1-18.7c-2.2-1.5-4.3-3.1-6.3-4.5
		c-0.7-0.6-1.5-1.1-2.2-1.7c-0.5-0.4-0.9-0.7-1.4-1c-2.6-2.1-4.8-4.2-6.9-6.3c-0.4-0.4-0.6-0.6-1-1s-0.7-0.7-1-1.1
		c-0.6-0.7-1.2-1.4-1.8-2.1c-0.2-0.4-0.6-0.7-0.9-1c-0.2-0.4-0.5-0.7-0.9-1.1c-0.6-0.9-1.2-1.7-1.8-2.6c6.3-2.2,11.9-5.7,16.6-10
		c0.7,0.6,1.4,1.2,2.1,1.8c0.6,0.5,1.2,1,1.8,1.5c0.7,0.6,1.6,1.2,2.3,1.8c1.1,0.9,2.2,1.7,3.3,2.6c1,0.7,2,1.5,2.9,2.2
		c0.2,0.2,0.5,0.4,0.9,0.6c0.7,0.5,1.6,1.1,2.3,1.6c0.4,0.2,0.7,0.5,1.2,0.7c0.7,0.5,1.5,1,2.2,1.5c1.7,1.1,3.4,2.2,5.2,3.2
		c0.9,0.5,1.7,1,2.6,1.6c0.6,0.4,1.1,0.6,1.7,1c2.6,1.5,5.3,2.8,8,4.3c20.4,10.2,43.9,17.6,70.4,22.2c3.4,0.6,6.9,1.1,10.3,1.6
		c0.4,0,0.7,0.1,1.1,0.1c2.3,0.4,4.5,0.6,6.9,0.9c1.7,0.2,3.6,0.4,5.3,0.6c1.4,0.1,2.7,0.2,4.2,0.4c0.5,0,1,0.1,1.5,0.1
		c1.2,0.1,2.3,0.2,3.4,0.2c3.4,0.2,6.9,0.5,10.3,0.7C281.2,202.8,281.8,202.8,282.4,202.8z"/>
	<path class="st2" d="M282.9,194.8c-0.9-1-1.7-2-2.6-3.1c-2-2.3-4.2-4.7-6.4-7.1c-0.7-0.9-1.6-1.7-2.5-2.6c-0.9-0.9-1.7-1.7-2.5-2.6
		c-2.1-2.2-4.3-4.3-6.5-6.5c-0.9-0.9-1.7-1.7-2.7-2.6c-0.5-0.5-0.9-0.9-1.4-1.2s-0.9-0.9-1.4-1.2c-0.9-0.7-1.7-1.6-2.6-2.3
		c-0.6-0.5-1.2-1.1-1.8-1.6c-0.9-0.7-1.7-1.4-2.5-2.1c-1.4-1.1-2.8-2.3-4.2-3.3c-0.5-0.4-1-0.7-1.4-1.1c-1-0.7-1.8-1.4-2.8-2.1
		c-19.2-13.6-40.1-23.7-62.3-30c-2.2-0.6-4.3-1.2-6.5-1.7c-0.9-0.2-1.7-0.5-2.7-0.6H170c-1-0.2-2-0.5-2.9-0.6
		c-0.9-0.2-1.7-0.4-2.5-0.5c-0.7-0.1-1.5-0.4-2.2-0.5c-0.6-0.1-1.2-0.2-1.7-0.4c-1-0.2-2-0.4-3.1-0.5c-0.7-0.1-1.5-0.2-2.2-0.4
		c-0.2,0-0.5-0.1-0.7-0.1c-1.6-0.2-3.1-0.5-4.7-0.6c-0.9-0.1-1.8-0.2-2.7-0.2h-0.1c-0.1,0-0.2,0-0.4,0c0.1-0.9,0.1-1.7,0.1-2.7
		c8.7-1.7,17.2-2.3,23.7-2.1C206.5,115.3,256.8,141,282.9,194.8C282.9,194.7,282.9,194.8,282.9,194.8z"/>
	<path class="st5" d="M281.8,199.1c-2.6-0.1-5.3-0.2-7.9-0.5c-1.5-0.1-2.9-0.2-4.3-0.4c-1.4-0.1-2.8-0.2-4.2-0.4h-0.1
		c-1.4-0.1-2.7-0.2-4.2-0.4c-2.9-0.2-5.9-0.6-8.7-1.1c-5.3-0.7-10.4-1.5-15.6-2.3c-6.8-1.2-13.3-2.6-19.7-4.2
		c-0.9-0.2-1.6-0.4-2.5-0.6c-0.1,0-0.1,0-0.2-0.1c-1.6-0.4-3.2-0.9-4.8-1.2c-1-0.2-2-0.6-2.9-0.9h-0.1c-3.1-0.9-6.1-1.8-9.1-2.8
		c-1-0.4-2-0.6-2.9-1c-1-0.4-2-0.6-2.9-1.1c-1-0.4-2-0.7-2.9-1.1c-0.7-0.2-1.5-0.5-2.1-0.9c-1.2-0.5-2.3-1-3.6-1.5
		c-1-0.4-1.8-0.7-2.8-1.2c-1-0.4-1.8-0.7-2.7-1.2c-0.9-0.4-1.6-0.7-2.5-1.1c-0.2-0.1-0.5-0.2-0.6-0.2c-0.6-0.2-1.4-0.6-2-1
		c-0.2-0.1-0.6-0.2-0.9-0.4c-0.6-0.2-1.4-0.6-2-1c-1.1-0.6-2.3-1.1-3.4-1.7c-0.5-0.2-1-0.5-1.4-0.7c-0.2-0.1-0.4-0.2-0.6-0.4
		c-0.4-0.2-0.7-0.4-1.1-0.6c-0.6-0.4-1.4-0.7-2-1.1c-0.5-0.2-1.1-0.6-1.6-0.9c-0.1-0.1-0.2-0.1-0.4-0.2c-0.2-0.1-0.5-0.2-0.9-0.5
		c-0.4-0.2-0.9-0.5-1.2-0.7c-0.1,0-0.2-0.1-0.2-0.1c-0.7-0.5-1.5-0.9-2.2-1.4c-1-0.6-1.8-1.2-2.8-1.7c-2.2-1.4-4.3-2.8-6.4-4.3
		c-0.9-0.6-1.8-1.2-2.7-2c-1.2-0.9-2.3-1.7-3.4-2.6c-0.9-0.7-1.7-1.4-2.6-2c-1.2-1-2.3-1.8-3.4-2.8c6.9-7.1,11.5-16.3,13.3-26.3
		c1.1,0.1,2.2,0.2,3.3,0.4c1.8,0.2,3.6,0.5,5.4,0.7c1.8,0.2,3.7,0.6,5.7,1c2.1,0.4,4.3,0.9,6.5,1.4c0.7,0.1,1.5,0.4,2.2,0.5
		c2.9,0.7,5.9,1.5,9,2.3c21.5,6.1,42.6,16.3,61.2,29.5c2.5,1.7,4.8,3.6,7.2,5.5c0.5,0.4,1,0.7,1.5,1.2c2,1.6,3.8,3.3,5.8,4.9
		c1.5,1.2,2.8,2.6,4.2,3.9c1,0.9,1.8,1.7,2.7,2.7c0.5,0.5,0.9,0.9,1.4,1.4s0.9,0.9,1.4,1.4c4.1,4.1,7.9,8.1,11.4,12.2
		c0.7,0.9,1.6,1.7,2.3,2.6C278.9,195.7,280.3,197.4,281.8,199.1L281.8,199.1z"/>
	<path class="st2" d="M142.7,113.5c0,1.2,0,2.6-0.1,3.8c0,0.5,0,0.9-0.1,1.4c-0.1,1.2-0.2,2.5-0.5,3.7c-1.6,9-5.9,17.2-12,23.7
		c-0.9,0.9-1.7,1.7-2.7,2.6c-4.4,3.9-9.7,7.1-15.6,9.1c-1.2,0.4-2.3,0.7-3.6,1c-0.9,0.2-1.8,0.4-2.8,0.6
		c-24.8,4.5-48.5-12-53.1-36.7c-0.5-2.6-0.9-5.5-1.1-8.4c0.5,0.9,0.9,1.8,1.4,2.7c2.7,4.8,8.5,13.6,17.4,20.1c5,3.7,11.8,7,19.7,7
		c4.8,0,10.1-1.2,15.6-4.4c1.4-0.7,2.7-1.7,4.1-2.7c1-0.7,1.1-2.1,0.5-3.1c-0.4-0.5-1.1-0.9-1.7-0.9c-0.5,0-1,0.1-1.4,0.4
		c-11.2,8.4-22.7,8.5-34.2,0.2c-14.5-10.4-21.7-28.9-20.8-32.4l0,0c0,0,0,0,0-0.1C58.6,83.9,71.8,72.7,89,69.5
		c2.7-0.5,5.5-0.7,8.2-0.7c21.6,0,40.9,15.5,44.8,37.5C142.4,108.6,142.6,111,142.7,113.5z"/>
	<path class="st1" d="M279.5,218.8c-1-1.1-1.8-2.2-2.7-3.3l0,0c0.1,0,0.2-0.1,0.4-0.2c2.5-1.6,4.7-3.4,6.4-5.8
		c1.1-1.5,2-3.1,2.8-4.7c0.7-1.6,1.5-3.2,1.5-4.9c0-0.7,0-1.5-0.1-2.2c-0.2-1.6-0.9-3.1-1.5-4.5c-18.8-38.6-62.9-80.8-115.4-82.6
		c-6.6-0.2-15.1,0.4-23.8,2.1c-0.1-2.3-0.4-4.8-0.7-7.1c-4.9-27.2-31-45.1-58.1-40.2C69.5,68.8,55,80.9,47.5,99.6v0.1
		c-2.5,6.5-0.1,20.8,0.5,23.6c4.4,24.1,25.4,41,49.1,41c2.9,0,5.9-0.2,9-0.9c1.2-0.2,2.5-0.5,3.6-0.9c0.9,2.6,2,5.2,3.1,7.6
		c2.5,5.5,5.2,11.1,8.7,16c0.5,0.7,1.1,1.5,1.6,2.2c3.4,4.3,7.1,8.1,11.1,11.3c0,0,0,0,0.1,0.1c2.3,9.7,5.3,20.1,9,31
		c4.8,14.1,16.2,26.4,33.3,35.5c13.5,7.2,30,12.3,45.2,13.8c1.2,0.1,2.5,0.1,3.4,0.1c4.8,0,7.7-1.2,9-3.7c3.1-6.5-7.5-18.1-23-33.8
		c-2.2-2.2-4.2-4.3-6-6.1c-5-5.3-9.2-10.2-12.7-14.6c1.6,0.2,3.3,0.5,4.9,0.7c8.5,1.2,18.8,2.3,30,2.3c5,0,10.3-0.2,15.7-0.7
		c0.1,0,0.2,0,0.4,0l0,0c4.7,7.1,13.4,12.4,32.6,20.9c3.6,1.6,6.4,2.2,8.5,2.2c2.8,0,4.5-1.1,5.4-2.5
		C293.2,240.3,289.1,229.7,279.5,218.8z M146.9,116.3c8.7-1.7,17.2-2.3,23.7-2.1c35.8,1.2,86.1,26.9,112.2,80.6c0,0,0,0,0,0.1
		c-0.9-1-1.7-2-2.6-3.1c-2-2.3-4.2-4.7-6.4-7.1c-0.7-0.9-1.6-1.7-2.5-2.6c-0.9-0.9-1.7-1.7-2.5-2.6c-2.1-2.2-4.3-4.3-6.5-6.5
		c-0.9-0.9-1.7-1.7-2.7-2.6c-0.5-0.5-0.9-0.9-1.4-1.2s-0.9-0.9-1.4-1.2c-0.9-0.7-1.7-1.6-2.6-2.3c-0.6-0.5-1.2-1.1-1.8-1.6
		c-0.9-0.7-1.7-1.4-2.5-2.1c-1.4-1.1-2.8-2.3-4.2-3.3c-0.5-0.4-1-0.7-1.4-1.1c-1-0.7-1.8-1.4-2.8-2.1c-19.2-13.6-40.1-23.7-62.3-30
		c-2.2-0.6-4.3-1.2-6.5-1.7c-0.9-0.2-1.7-0.5-2.7-0.6h-0.1c-1-0.2-2-0.5-2.9-0.6c-0.9-0.2-1.7-0.4-2.5-0.5c-0.7-0.1-1.5-0.4-2.2-0.5
		c-0.6-0.1-1.2-0.2-1.7-0.4c-1-0.2-2-0.4-3.1-0.5c-0.7-0.1-1.5-0.2-2.2-0.4c-0.2,0-0.5-0.1-0.7-0.1c-1.6-0.2-3.1-0.5-4.7-0.6
		c-0.9-0.1-1.8-0.2-2.7-0.2h-0.1c-0.1,0-0.2,0-0.4,0C146.9,118,146.9,117.2,146.9,116.3z M146.3,122.6c1.1,0.1,2.2,0.2,3.3,0.4
		c1.8,0.2,3.6,0.5,5.4,0.7c1.8,0.2,3.7,0.6,5.7,1c2.1,0.4,4.3,0.9,6.5,1.4c0.7,0.1,1.5,0.4,2.2,0.5c2.9,0.7,5.9,1.5,9,2.3
		c21.5,6.1,42.6,16.3,61.2,29.5c2.5,1.7,4.8,3.6,7.2,5.5c0.5,0.4,1,0.7,1.5,1.2c2,1.6,3.8,3.3,5.8,4.9c1.5,1.2,2.8,2.6,4.2,3.9
		c1,0.9,1.8,1.7,2.7,2.7c0.5,0.5,0.9,0.9,1.4,1.4s0.9,0.9,1.4,1.4c4.1,4.1,7.9,8.1,11.4,12.2c0.7,0.9,1.6,1.7,2.3,2.6
		c1.5,1.7,2.9,3.4,4.4,5l0,0c-2.6-0.1-5.3-0.2-7.9-0.5c-1.5-0.1-2.9-0.2-4.3-0.4c-1.4-0.1-2.8-0.2-4.2-0.4h-0.1
		c-1.4-0.1-2.7-0.2-4.2-0.4c-2.9-0.2-5.9-0.6-8.7-1.1c-5.3-0.7-10.4-1.5-15.6-2.3c-6.8-1.2-13.3-2.6-19.7-4.2
		c-0.9-0.2-1.6-0.4-2.5-0.6c-0.1,0-0.1,0-0.2-0.1c-1.6-0.4-3.2-0.9-4.8-1.2c-1-0.2-2-0.6-2.9-0.9h-0.1c-3.1-0.9-6.1-1.8-9.1-2.8
		c-1-0.4-2-0.6-2.9-1c-1-0.4-2-0.6-2.9-1.1c-1-0.4-2-0.7-2.9-1.1c-0.7-0.2-1.5-0.5-2.1-0.9c-1.2-0.5-2.3-1-3.6-1.5
		c-1-0.4-1.8-0.7-2.8-1.2c-1-0.4-1.8-0.7-2.7-1.2c-0.9-0.4-1.6-0.7-2.5-1.1c-0.2-0.1-0.5-0.2-0.6-0.2c-0.6-0.2-1.4-0.6-2-1
		c-0.2-0.1-0.6-0.2-0.9-0.4c-0.6-0.2-1.4-0.6-2-1c-1.1-0.6-2.3-1.1-3.4-1.7c-0.5-0.2-1-0.5-1.4-0.7c-0.2-0.1-0.4-0.2-0.6-0.4
		c-0.4-0.2-0.7-0.4-1.1-0.6c-0.6-0.4-1.4-0.7-2-1.1c-0.5-0.2-1.1-0.6-1.6-0.9c-0.1-0.1-0.2-0.1-0.4-0.2c-0.2-0.1-0.5-0.2-0.9-0.5
		c-0.4-0.2-0.9-0.5-1.2-0.7c-0.1,0-0.2-0.1-0.2-0.1c-0.7-0.5-1.5-0.9-2.2-1.4c-1-0.6-1.8-1.2-2.8-1.7c-2.2-1.4-4.3-2.8-6.4-4.3
		c-0.9-0.6-1.8-1.2-2.7-2c-1.2-0.9-2.3-1.7-3.4-2.6c-0.9-0.7-1.7-1.4-2.6-2c-1.2-1-2.3-1.8-3.4-2.8
		C139.9,141.6,144.6,132.5,146.3,122.6z M111.5,157.6c-1.2,0.4-2.3,0.7-3.6,1c-0.9,0.2-1.8,0.4-2.8,0.6c-24.8,4.5-48.5-12-53.1-36.7
		c-0.5-2.6-0.9-5.5-1.1-8.4c0.5,0.9,0.9,1.8,1.4,2.7c2.7,4.8,8.5,13.6,17.4,20.1c5,3.7,11.8,7,19.7,7c4.8,0,10.1-1.2,15.6-4.4
		c1.4-0.7,2.7-1.7,4.1-2.7c1-0.7,1.1-2.1,0.5-3.1c-0.4-0.5-1.1-0.9-1.7-0.9c-0.5,0-1,0.1-1.4,0.4c-11.2,8.4-22.7,8.5-34.2,0.2
		C57.8,123,50.6,104.5,51.5,101l0,0c0,0,0,0,0-0.1c6.9-17.2,20.1-28.4,37.4-31.6c2.7-0.5,5.5-0.7,8.2-0.7
		c21.6,0,40.9,15.5,44.8,37.5c0.5,2.5,0.7,4.9,0.7,7.4c0,1.2,0,2.6-0.1,3.8c0,0.5,0,0.9-0.1,1.4c-0.1,1.2-0.2,2.5-0.5,3.7
		c-1.6,9-5.9,17.2-12,23.7c-0.9,0.9-1.7,1.7-2.7,2.6C122.7,152.4,117.4,155.6,111.5,157.6z M132.3,192.4c-2.1-2.1-4.1-4.3-5.9-6.6
		c-2.8-3.6-5.5-8.1-7.9-13c3.3,3.4,7.2,6.8,11.8,10.2c0,0,0,0,0.1,0C130.9,186,131.6,189,132.3,192.4L132.3,192.4L132.3,192.4z
		 M202.3,239.2c1.8,2,3.9,4.1,6.1,6.3c9.1,9.3,24.4,24.8,22.2,29.6c-0.4,0.6-1.8,2.2-8.7,1.5c-14.9-1.5-30.8-6.3-43.9-13.3
		c-11.3-6-25.8-16.8-31.5-33.5c-3.1-9.1-5.7-17.8-7.7-26.2l0,0c-0.6-2.2-1.1-4.5-1.7-6.6c0,0,0,0,0-0.1c-0.9-3.7-1.7-7.1-2.3-10.6
		c0.2,0.2,0.6,0.4,0.9,0.6c12.2,8.4,26.4,14.9,42.1,19.4c1.6,3.1,3.6,6.4,5.9,9.8l0,0c1.1,1.6,2.2,3.3,3.4,5l0,0
		C191.1,226.6,196.1,232.7,202.3,239.2z M240.7,220.1L240.7,220.1c-13.3,1.1-27.9,0.6-42.8-1.6c-3.2-0.5-6.3-1-9.2-1.5l0,0
		c-2.3-3.3-4.3-6.4-6-9.5c2.1,0.6,4.3,1.1,6.4,1.6c0.6,0.1,1.4,0.2,2,0.4l0,0c1,0.2,2,0.4,2.9,0.6c0.7,0.1,1.5,0.2,2.2,0.5
		c1.5,0.2,2.9,0.5,4.4,0.7c0.1,0,0.2,0,0.4,0c0.7,0.1,1.5,0.2,2.2,0.4c2.5,0.4,5,0.7,7.5,1c0.9,0.1,1.7,0.2,2.6,0.2
		c0.4,0.1,0.9,0.1,1.2,0.1c1,0.1,1.8,0.1,2.8,0.2c4.1,0.4,8.2,0.6,12.5,0.9c1,0,1.8,0.1,2.8,0.1h0.1c1,0,1.8,0.1,2.8,0.1
		s2,0,2.9,0.1c0.2,0,0.4,0,0.6,0c0.5,2,1.1,3.8,1.8,5.5L240.7,220.1z M242.3,210.9c-0.6,0-1.2,0-1.8,0h-0.2c-0.5,0-1.1,0-1.6,0
		c-0.2,0-0.4,0-0.6,0c-1.1,0-2.1,0-3.2-0.1c-0.6,0-1.1,0-1.7-0.1c-1.1,0-2.1-0.1-3.1-0.1c-1.2,0-2.5-0.1-3.7-0.2c-0.2,0-0.4,0-0.6,0
		c-1.2-0.1-2.3-0.1-3.4-0.2c-2.3-0.1-4.7-0.4-6.9-0.6c-0.7-0.1-1.6-0.1-2.3-0.2c-1.1-0.1-2.1-0.2-3.1-0.4c-1.1-0.1-2.2-0.2-3.3-0.4
		c-0.7-0.1-1.5-0.2-2.2-0.4c-0.6-0.1-1.2-0.1-1.8-0.2c-1.5-0.2-2.8-0.5-4.3-0.7c-1.4-0.2-2.8-0.5-4.2-0.7c-0.5-0.1-1-0.2-1.6-0.4
		c-0.7-0.1-1.5-0.2-2.1-0.5c-0.7-0.1-1.4-0.2-2-0.5c-1.4-0.4-2.8-0.6-4.2-1c-0.5-0.1-1-0.2-1.5-0.4c-0.7-0.2-1.6-0.4-2.3-0.6
		c-0.1,0-0.2-0.1-0.5-0.1c-0.6-0.1-1.4-0.4-2-0.6c-15-4.4-28.4-10.7-40.1-18.7c-2.2-1.5-4.3-3.1-6.3-4.5c-0.7-0.6-1.5-1.1-2.2-1.7
		c-0.5-0.4-0.9-0.7-1.4-1c-2.6-2.1-4.8-4.2-6.9-6.3c-0.4-0.4-0.6-0.6-1-1s-0.7-0.7-1-1.1c-0.6-0.7-1.2-1.4-1.8-2.1
		c-0.2-0.4-0.6-0.7-0.9-1c-0.2-0.4-0.5-0.7-0.9-1.1c-0.6-0.9-1.2-1.7-1.8-2.6c6.3-2.2,11.9-5.7,16.6-10c0.7,0.6,1.4,1.2,2.1,1.8
		c0.6,0.5,1.2,1,1.8,1.5c0.7,0.6,1.6,1.2,2.3,1.8c1.1,0.9,2.2,1.7,3.3,2.6c1,0.7,2,1.5,2.9,2.2c0.2,0.2,0.5,0.4,0.9,0.6
		c0.7,0.5,1.6,1.1,2.3,1.6c0.4,0.2,0.7,0.5,1.2,0.7c0.7,0.5,1.5,1,2.2,1.5c1.7,1.1,3.4,2.2,5.2,3.2c0.9,0.5,1.7,1,2.6,1.6
		c0.6,0.4,1.1,0.6,1.7,1c2.6,1.5,5.3,2.8,8,4.3c20.4,10.2,43.9,17.6,70.4,22.2c3.4,0.6,6.9,1.1,10.3,1.6c0.4,0,0.7,0.1,1.1,0.1
		c2.3,0.4,4.5,0.6,6.9,0.9c1.7,0.2,3.6,0.4,5.3,0.6c1.4,0.1,2.7,0.2,4.2,0.4c0.5,0,1,0.1,1.5,0.1c1.2,0.1,2.3,0.2,3.4,0.2
		c3.4,0.2,6.9,0.5,10.3,0.7c0.6,0,1.2,0,1.7,0.1c-0.1,0.1-0.1,0.4-0.2,0.5c-0.4,0.7-0.6,1.4-1.2,2c-0.6,0.5-1.4,0.7-2,1.2
		c-0.2,0.1-0.4,0.2-0.6,0.2c-1.2,0.6-2.3,1-3.2,1.2c-0.2,0.1-0.5,0.1-0.6,0.2c-0.6,0.1-1.2,0.4-1.8,0.5c-0.7,0.2-1.5,0.4-2.2,0.5
		c-0.6,0.1-1.2,0.2-1.8,0.4c-0.1,0-0.1,0-0.2,0c-0.5,0.1-0.9,0.1-1.4,0.2c-0.4,0-0.7,0.1-1.1,0.1c-0.5,0.1-1,0.1-1.6,0.2
		c-0.2,0-0.5,0.1-0.7,0.1c-0.6,0.1-1.1,0.1-1.7,0.1c-0.2,0-0.5,0-0.9,0.1c-1.4,0.1-2.8,0.2-4.3,0.2c-0.4,0-0.7,0-1,0
		c-0.6,0-1.2,0-1.8,0.1c-0.9,0-1.7,0-2.7,0c-0.9,0-1.7,0-2.7,0h-0.1c-1,0-1.8,0-2.7,0C244.5,211,243.4,211,242.3,210.9z
		 M286.7,242.9c-1.1,1.5-4.7,1.1-9.5-1c-5.4-2.5-10.8-4.9-16-7.7c-3.4-1.8-6.9-3.9-10-6.4c-4.1-3.4-6.9-7.9-8.4-13
		c0.9,0,1.7,0,2.7,0c0.9,0,1.7,0,2.6,0c0.6,0,1.2,0,1.8,0c0.9,0,1.7,0,2.6-0.1c0.1,0,0.2,0,0.4,0c1.1,0,2.1,0,3.2-0.1
		c1.2,0,2.5-0.1,3.6-0.2c0.6,0,1.2-0.1,1.8-0.1c0.2,0,0.4,0,0.6,0c0.4,0,0.7-0.1,1.2-0.1c0.2,0,0.4,0,0.6,0c0.6-0.1,1.4-0.1,2-0.2
		c1.2-0.1,2.5-0.4,3.7-0.6c0.2,0,0.4,0,0.6-0.1c0.1,0.2,0.2,0.4,0.4,0.6c1.8,2.7,3.7,5.3,5.8,7.7c2.1,2.5,4.2,5,5.9,7.7
		c1.4,2.1,2.6,4.3,3.6,6.6c0.6,1.6,1.1,3.3,1.1,5C287.3,241.4,287.2,242.2,286.7,242.9z"/>
	<path class="st1" d="M119.2,91.6c-6.3-2.5-13.9,1.7-17,9.3s-0.4,16,5.9,18.4s13.9-1.7,17-9.3C128,102.4,125.4,94.2,119.2,91.6z
		 M122.2,102.3c-0.7,1.7-2.7,2.6-4.4,2c-1.7-0.7-2.6-2.7-2-4.4c0.7-1.7,2.7-2.6,4.4-2C122.1,98.6,123,100.6,122.2,102.3z"/>
	<path class="st6" d="M122.2,102.3c-0.7,1.7-2.7,2.6-4.4,2c-1.7-0.7-2.6-2.7-2-4.4c0.7-1.7,2.7-2.6,4.4-2
		C122.1,98.6,123,100.6,122.2,102.3z"/>
</g>
</svg>
